<svg width="24" height="24" viewBox="0 0 24 24" fill="none" xmlns="http://www.w3.org/2000/svg">
<path d="M9.75 12.75C10.3433 12.75 10.9234 12.5741 11.4167 12.2444C11.9101 11.9148 12.2946 11.4462 12.5216 10.8981C12.7487 10.3499 12.8081 9.74667 12.6924 9.16473C12.5766 8.58279 12.2909 8.04824 11.8713 7.62868C11.4518 7.20912 10.9172 6.9234 10.3353 6.80765C9.75333 6.69189 9.15013 6.7513 8.60195 6.97836C8.05377 7.20543 7.58524 7.58994 7.25559 8.08329C6.92595 8.57664 6.75 9.15666 6.75 9.75C6.75077 10.5454 7.06709 11.308 7.62954 11.8705C8.19198 12.4329 8.95459 12.7492 9.75 12.75ZM9.75 8.25C10.0467 8.25 10.3367 8.33798 10.5834 8.5028C10.83 8.66762 11.0223 8.90189 11.1358 9.17598C11.2494 9.45007 11.2791 9.75167 11.2212 10.0426C11.1633 10.3336 11.0204 10.6009 10.8107 10.8107C10.6009 11.0204 10.3336 11.1633 10.0426 11.2212C9.75166 11.2791 9.45006 11.2494 9.17598 11.1358C8.90189 11.0223 8.66762 10.83 8.5028 10.5834C8.33797 10.3367 8.25 10.0467 8.25 9.75C8.25054 9.35234 8.40874 8.97112 8.68993 8.68993C8.97112 8.40874 9.35234 8.25054 9.75 8.25Z" fill="#969BA0"/>
<path d="M21.4679 14.6775C21.7155 14.3459 21.8809 13.9603 21.9506 13.5524C22.0202 13.1444 21.9921 12.7258 21.8686 12.3308L21.3925 10.7818C21.169 10.0471 20.7146 9.40399 20.0967 8.94793C19.4788 8.49187 18.7304 8.24712 17.9624 8.24999H14.5971C14.3982 8.24999 14.2074 8.32901 14.0668 8.46966C13.9261 8.61032 13.8471 8.80108 13.8471 8.99999C13.8471 9.19891 13.9261 9.38967 14.0668 9.53032C14.2074 9.67098 14.3982 9.74999 14.5971 9.74999H17.9624C18.4093 9.74846 18.8448 9.89097 19.2043 10.1564C19.5638 10.4218 19.8282 10.7961 19.9583 11.2236L20.4344 12.772C20.4869 12.9428 20.4986 13.1235 20.4686 13.2996C20.4386 13.4758 20.3677 13.6424 20.2616 13.7862C20.1554 13.93 20.0171 14.0468 19.8576 14.1274C19.6981 14.2079 19.5219 14.2499 19.3432 14.25H12.4665C12.4453 14.25 12.4275 14.2603 12.4065 14.2621C12.3561 14.2601 12.3074 14.25 12.2563 14.25H7.55379C6.72036 14.247 5.90815 14.5127 5.23776 15.0079C4.56736 15.5031 4.07451 16.2012 3.83237 16.9987L3.27242 18.8175C3.14162 19.2431 3.11251 19.6935 3.18741 20.1324C3.26232 20.5713 3.43915 20.9866 3.7037 21.3447C3.96825 21.7029 4.31314 21.994 4.71064 22.1946C5.10814 22.3953 5.54717 22.4999 5.99244 22.5H13.8171C14.2624 22.4999 14.7015 22.3953 15.099 22.1947C15.4966 21.9941 15.8415 21.703 16.1061 21.3448C16.3707 20.9867 16.5475 20.5714 16.6224 20.1325C16.6974 19.6935 16.6682 19.2431 16.5374 18.8175L15.9779 16.9989C15.8361 16.546 15.6129 16.1228 15.3193 15.75H19.3432C19.7569 15.7519 20.1652 15.6557 20.5345 15.4693C20.9039 15.2828 21.2238 15.0115 21.4679 14.6775ZM14.8996 20.4534C14.7752 20.6236 14.6122 20.7618 14.4241 20.8568C14.2359 20.9519 14.0279 21.0009 13.8171 21H5.99244C5.78184 21 5.57419 20.9505 5.38618 20.8556C5.19817 20.7607 5.03505 20.623 4.90995 20.4536C4.78485 20.2842 4.70126 20.0878 4.66589 19.8802C4.63053 19.6726 4.64439 19.4595 4.70634 19.2583L5.26592 17.4397C5.41458 16.9493 5.71748 16.5201 6.1296 16.2157C6.54172 15.9112 7.04106 15.7479 7.55342 15.75H12.2559C12.7683 15.7479 13.2676 15.9113 13.6797 16.2157C14.0918 16.5201 14.3947 16.9493 14.5434 17.4397L15.103 19.2583C15.1661 19.4594 15.1806 19.6726 15.1452 19.8804C15.1098 20.0882 15.0257 20.2847 14.8996 20.4536V20.4534Z" fill="#969BA0"/>
<path d="M16.125 6.74999C16.6442 6.74999 17.1517 6.59604 17.5834 6.3076C18.015 6.01916 18.3515 5.6092 18.5502 5.12954C18.7489 4.64988 18.8008 4.12209 18.6996 3.61289C18.5983 3.10369 18.3483 2.63596 17.9812 2.26884C17.614 1.90173 17.1463 1.65173 16.6371 1.55044C16.1279 1.44915 15.6001 1.50114 15.1205 1.69982C14.6408 1.8985 14.2308 2.23495 13.9424 2.66663C13.654 3.09831 13.5 3.60582 13.5 4.125C13.5008 4.82093 13.7777 5.48813 14.2698 5.98023C14.7619 6.47233 15.4291 6.74916 16.125 6.74999ZM16.125 3C16.3475 3 16.565 3.06598 16.75 3.1896C16.935 3.31321 17.0792 3.48891 17.1644 3.69448C17.2495 3.90005 17.2718 4.12625 17.2284 4.34447C17.185 4.5627 17.0778 4.76316 16.9205 4.92049C16.7632 5.07783 16.5627 5.18497 16.3445 5.22838C16.1262 5.27179 15.9 5.24951 15.6945 5.16436C15.4889 5.07921 15.3132 4.93502 15.1896 4.75001C15.066 4.56501 15 4.3475 15 4.125C15.0003 3.82673 15.119 3.54078 15.3299 3.32988C15.5408 3.11897 15.8267 3.00034 16.125 3Z" fill="#969BA0"/>
</svg>
