<svg width="56" height="56" viewBox="0 0 56 56" fill="none" xmlns="http://www.w3.org/2000/svg">
<rect width="56" height="56" rx="8" fill="#FFEBE7"/>
<path d="M28 23.625C27.1347 23.625 26.2888 23.8816 25.5694 24.3623C24.8499 24.8431 24.2892 25.5263 23.958 26.3258C23.6269 27.1252 23.5403 28.0049 23.7091 28.8535C23.8779 29.7022 24.2946 30.4817 24.9064 31.0936C25.5183 31.7054 26.2978 32.1221 27.1465 32.2909C27.9951 32.4597 28.8748 32.3731 29.6742 32.042C30.4737 31.7108 31.1569 31.1501 31.6377 30.4306C32.1184 29.7112 32.375 28.8653 32.375 28C32.3736 26.8401 31.9122 25.7281 31.0921 24.9079C30.2719 24.0878 29.1599 23.6264 28 23.625ZM28 30.625C27.4808 30.625 26.9733 30.471 26.5416 30.1826C26.1099 29.8942 25.7735 29.4842 25.5748 29.0045C25.3761 28.5249 25.3242 27.9971 25.4254 27.4879C25.5267 26.9787 25.7767 26.511 26.1438 26.1439C26.511 25.7767 26.9787 25.5267 27.4879 25.4255C27.9971 25.3242 28.5249 25.3761 29.0045 25.5748C29.4842 25.7735 29.8942 26.11 30.1826 26.5416C30.471 26.9733 30.625 27.4808 30.625 28C30.6242 28.696 30.3474 29.3632 29.8553 29.8553C29.3632 30.3474 28.696 30.6242 28 30.625Z" fill="#FF6D4D"/>
<path d="M19.4893 22.5599C19.0591 22.3982 18.5828 22.4103 18.1613 22.5935C17.7397 22.7767 17.406 23.1167 17.2307 23.5416C17.0554 23.9665 17.0522 24.4429 17.2219 24.87C17.3915 25.2972 17.7207 25.6416 18.1397 25.8304C18.566 26.0107 18.9297 26.3127 19.1855 26.6985C19.4412 27.0843 19.5776 27.5369 19.5776 27.9998C19.5776 28.4626 19.4412 28.9153 19.1855 29.3011C18.9297 29.6869 18.566 29.9888 18.1397 30.1691C17.7206 30.3579 17.3913 30.7024 17.2216 31.1297C17.052 31.5569 17.0552 32.0334 17.2306 32.4584C17.406 32.8833 17.7399 33.2233 18.1615 33.4065C18.5832 33.5896 19.0595 33.6015 19.4898 33.4397C19.9192 33.2648 20.3906 33.2205 20.8451 33.3124C21.2995 33.4043 21.7167 33.6282 22.0445 33.9561C22.3722 34.284 22.5959 34.7013 22.6875 35.1558C22.7792 35.6102 22.7347 36.0816 22.5596 36.5109C22.3927 36.9424 22.4031 37.4222 22.5884 37.846C22.7738 38.2699 23.1191 38.6033 23.5491 38.7736C23.7645 38.8627 23.9953 38.9086 24.2284 38.9086C24.5689 38.911 24.9026 38.8128 25.1875 38.6264C25.4724 38.4399 25.696 38.1735 25.8302 37.8605C26.0105 37.4342 26.3124 37.0705 26.6982 36.8148C27.084 36.5591 27.5366 36.4227 27.9995 36.4227C28.4624 36.4227 28.915 36.5591 29.3008 36.8148C29.6866 37.0705 29.9885 37.4342 30.1689 37.8605C30.3577 38.2797 30.7022 38.6089 31.1294 38.7786C31.5567 38.9483 32.0332 38.9451 32.4581 38.7696C32.883 38.5942 33.223 38.2604 33.4062 37.8387C33.5893 37.4171 33.6013 36.9407 33.4394 36.5104C33.2646 36.081 33.2203 35.6096 33.3121 35.1552C33.404 34.7008 33.6279 34.2835 33.9558 33.9558C34.2837 33.628 34.701 33.4043 35.1555 33.3127C35.61 33.2211 36.0814 33.2656 36.5107 33.4407C36.9394 33.6071 37.4164 33.5982 37.8386 33.4158C38.2608 33.2335 38.5942 32.8923 38.767 32.4661L37.9646 32.1175L37.1683 31.8193C36.4205 31.5137 35.599 31.4362 34.8072 31.5962C34.0154 31.7563 33.2886 32.147 32.7182 32.719C32.1482 33.2936 31.7566 34.0208 31.5906 34.8129C31.4245 35.605 31.4912 36.4282 31.7824 37.1833C31.4703 36.4381 30.9446 35.8019 30.2715 35.3551C29.5984 34.9082 28.808 34.6706 28.0001 34.6723C27.1904 34.6748 26.3988 34.9119 25.721 35.355C25.0433 35.798 24.5085 36.428 24.1813 37.1687C24.4866 36.4208 24.5641 35.5994 24.404 34.8076C24.244 34.0158 23.8534 33.289 23.2816 32.7185C22.7069 32.1486 21.9798 31.7571 21.1877 31.591C20.3956 31.425 19.5724 31.4916 18.8173 31.7828C19.5625 31.4706 20.1986 30.9447 20.6453 30.2715C21.0921 29.5983 21.3296 28.8079 21.3278 28C21.3253 27.1903 21.0881 26.3987 20.6451 25.7209C20.202 25.0432 19.5721 24.5084 18.8314 24.1812C19.5792 24.4867 20.4007 24.5643 21.1925 24.4042C21.9843 24.2441 22.7111 23.8535 23.2816 23.2815C23.8515 22.7069 24.2431 21.9797 24.4092 21.1876C24.5752 20.3955 24.5086 19.5723 24.2173 18.8172C24.5295 19.5624 25.0554 20.1985 25.7285 20.6452C26.4017 21.092 27.1921 21.3295 28.0001 21.3277C28.8098 21.3252 29.6014 21.088 30.2791 20.645C30.9569 20.202 31.4917 19.572 31.8188 18.8313C31.5135 19.5792 31.436 20.4006 31.5961 21.1924C31.7562 21.9841 32.1467 22.711 32.7186 23.2815C33.2934 23.8511 34.0205 24.2426 34.8126 24.4086C35.6046 24.5746 36.4277 24.5081 37.1829 24.2172C36.4413 24.5287 35.8078 25.0517 35.3614 25.7208C34.9149 26.39 34.6753 27.1757 34.6724 27.9801C34.6695 28.7844 34.9034 29.5719 35.345 30.2442C35.7865 30.9166 36.4162 31.4441 37.1556 31.761C37.158 31.7682 37.158 31.776 37.1556 31.7832L37.9643 32.117L38.7684 32.4617L38.7731 32.4506C38.9517 32.0268 38.9561 31.5498 38.7852 31.1228C38.6144 30.6959 38.2821 30.3535 37.8605 30.17C37.4342 29.9897 37.0704 29.6878 36.8147 29.3019C36.559 28.9161 36.4226 28.4635 36.4226 28.0006C36.4226 27.5378 36.559 27.0852 36.8147 26.6994C37.0704 26.3135 37.4342 26.0116 37.8605 25.8313C38.2796 25.6425 38.6088 25.298 38.7785 24.8707C38.9482 24.4435 38.945 23.967 38.7696 23.5421C38.5941 23.1171 38.2603 22.7771 37.8386 22.594C37.417 22.4108 36.9406 22.3989 36.5103 22.5607C36.081 22.7356 35.6095 22.7799 35.1551 22.688C34.7007 22.5962 34.2835 22.3723 33.9557 22.0444C33.628 21.7164 33.4043 21.2991 33.3126 20.8446C33.221 20.3902 33.2655 19.9188 33.4406 19.4895C33.6023 19.0592 33.5904 18.5829 33.4072 18.1613C33.224 17.7397 32.884 17.4059 32.4591 17.2305C32.0342 17.0551 31.5578 17.0519 31.1305 17.2216C30.7033 17.3913 30.3589 17.7205 30.1701 18.1396C29.9898 18.5659 29.6879 18.9296 29.302 19.1854C28.9162 19.4411 28.4636 19.5775 28.0007 19.5775C27.5379 19.5775 27.0853 19.4411 26.6994 19.1854C26.3136 18.9296 26.0117 18.5659 25.8314 18.1396C25.6426 17.7205 25.2981 17.3912 24.8708 17.2216C24.4436 17.0519 23.9671 17.0551 23.5422 17.2305C23.1172 17.4059 22.7772 17.7398 22.5941 18.1614C22.4109 18.5831 22.399 19.0595 22.5608 19.4897C22.7357 19.9191 22.78 20.3905 22.6881 20.845C22.5963 21.2994 22.3724 21.7166 22.0444 22.0444C21.7165 22.3721 21.2992 22.5958 20.8447 22.6874C20.3903 22.7791 19.9189 22.7346 19.4896 22.5595L19.4893 22.5599Z" fill="#FF6D4D"/>
</svg>
