<svg width="56" height="56" viewBox="0 0 56 56" fill="none" xmlns="http://www.w3.org/2000/svg">
<rect width="56" height="56" rx="8" fill="#E9ECFF"/>
<path d="M36.4604 17.8488H19.3168C18.6474 17.8496 18.0056 18.1158 17.5323 18.5892C17.059 19.0625 16.7927 19.7043 16.792 20.3737V32.1562C16.7927 32.8256 17.059 33.4674 17.5323 33.9407C18.0056 34.414 18.6474 34.6803 19.3168 34.681C19.54 34.6812 19.754 34.7699 19.9118 34.9277C20.0696 35.0855 20.1583 35.2995 20.1584 35.5226V37.3168C20.1584 37.6214 20.2411 37.9204 20.3977 38.1817C20.5542 38.4431 20.7788 38.6571 21.0474 38.8008C21.316 38.9446 21.6186 39.0127 21.9229 38.998C22.2272 38.9833 22.5218 38.8863 22.7753 38.7173L28.6173 34.8224C28.7554 34.7299 28.9179 34.6807 29.0841 34.681H33.187C33.7383 34.68 34.2742 34.4993 34.7136 34.1664C35.1531 33.8334 35.472 33.3664 35.6222 32.8359L38.8965 21.0501C38.9998 20.6748 39.0152 20.2807 38.9413 19.8985C38.8674 19.5163 38.7064 19.1564 38.4707 18.8466C38.2349 18.5368 37.9309 18.2857 37.5822 18.1126C37.2336 17.9395 36.8497 17.8493 36.4604 17.8488ZM37.2732 20.603L34.0005 32.3847C33.9499 32.5614 33.8432 32.7168 33.6964 32.8274C33.5496 32.938 33.3708 32.9979 33.187 32.9978H29.0841C28.5855 32.9972 28.098 33.1448 27.6836 33.4219L21.8416 37.3168V35.5226C21.8409 34.8532 21.5747 34.2115 21.1013 33.7381C20.628 33.2648 19.9862 32.9985 19.3168 32.9978C19.0937 32.9977 18.8797 32.909 18.7219 32.7512C18.5641 32.5934 18.4753 32.3794 18.4752 32.1562V20.3737C18.4753 20.1505 18.5641 19.9365 18.7219 19.7787C18.8797 19.6209 19.0937 19.5322 19.3168 19.5321H36.4604C36.5905 19.5324 36.7187 19.5627 36.8352 19.6207C36.9516 19.6787 37.0531 19.7628 37.1318 19.8664C37.2104 19.97 37.2641 20.0904 37.2886 20.2182C37.3132 20.3459 37.3079 20.4776 37.2732 20.603Z" fill="#2F4CDD"/>
<path d="M21.8416 25.4233H26.0497C26.2729 25.4233 26.4869 25.3347 26.6448 25.1768C26.8026 25.019 26.8913 24.8049 26.8913 24.5817C26.8913 24.3585 26.8026 24.1444 26.6448 23.9866C26.4869 23.8288 26.2729 23.7401 26.0497 23.7401H21.8416C21.6184 23.7401 21.4043 23.8288 21.2465 23.9866C21.0887 24.1444 21 24.3585 21 24.5817C21 24.8049 21.0887 25.019 21.2465 25.1768C21.4043 25.3347 21.6184 25.4233 21.8416 25.4233Z" fill="#2F4CDD"/>
<path d="M29.4161 27.1066H21.8416C21.6184 27.1066 21.4043 27.1952 21.2465 27.3531C21.0887 27.5109 21 27.725 21 27.9482C21 28.1714 21.0887 28.3854 21.2465 28.5433C21.4043 28.7011 21.6184 28.7898 21.8416 28.7898H29.4161C29.6393 28.7898 29.8534 28.7011 30.0112 28.5433C30.169 28.3854 30.2577 28.1714 30.2577 27.9482C30.2577 27.725 30.169 27.5109 30.0112 27.3531C29.8534 27.1952 29.6393 27.1066 29.4161 27.1066Z" fill="#2F4CDD"/>
</svg>
