<svg width="56" height="56" viewBox="0 0 56 56" fill="none" xmlns="http://www.w3.org/2000/svg">
<rect width="56" height="56" rx="8" fill="#E9ECFF"/>
<path d="M36.75 29.8385V27.0463C36.7471 24.8855 35.9385 22.8035 34.4821 21.2073C33.0258 19.6112 31.0264 18.6156 28.875 18.4152V16.625C28.875 16.3929 28.7828 16.1704 28.6187 16.0063C28.4546 15.8422 28.2321 15.75 28 15.75C27.7679 15.75 27.5454 15.8422 27.3813 16.0063C27.2172 16.1704 27.125 16.3929 27.125 16.625V18.4153C24.9736 18.6157 22.9743 19.6113 21.5179 21.2075C20.0616 22.8036 19.2529 24.8855 19.25 27.0463V29.8383C18.2626 30.0412 17.3753 30.5784 16.7377 31.3593C16.1002 32.1401 15.7513 33.1169 15.75 34.125C15.7508 34.821 16.0276 35.4882 16.5197 35.9803C17.0118 36.4724 17.679 36.7492 18.375 36.75H23.7135C23.9152 37.738 24.452 38.6259 25.2331 39.2636C26.0142 39.9013 26.9916 40.2497 28 40.2497C29.0084 40.2497 29.9858 39.9013 30.7669 39.2636C31.548 38.6259 32.0848 37.738 32.2865 36.75H37.625C38.321 36.7492 38.9882 36.4724 39.4803 35.9803C39.9724 35.4882 40.2492 34.821 40.25 34.125C40.2486 33.117 39.8998 32.1402 39.2622 31.3594C38.6247 30.5786 37.7374 30.0414 36.75 29.8385ZM21 27.0463C21.0023 25.2113 21.7323 23.4522 23.0297 22.1547C24.3272 20.8573 26.0863 20.1273 27.9212 20.125H28.0788C29.9137 20.1273 31.6728 20.8573 32.9703 22.1547C34.2677 23.4522 34.9977 25.2113 35 27.0463V29.75H21V27.0463ZM28 38.5C27.4589 38.4983 26.9316 38.3292 26.4905 38.0159C26.0493 37.7026 25.716 37.2604 25.5363 36.75H30.4637C30.284 37.2604 29.9507 37.7026 29.5095 38.0159C29.0684 38.3292 28.5411 38.4983 28 38.5ZM37.625 35H18.375C18.143 34.9999 17.9205 34.9076 17.7564 34.7436C17.5924 34.5795 17.5001 34.357 17.5 34.125C17.5008 33.429 17.7776 32.7618 18.2697 32.2697C18.7618 31.7776 19.429 31.5008 20.125 31.5H35.875C36.571 31.5008 37.2382 31.7776 37.7303 32.2697C38.2224 32.7618 38.4992 33.429 38.5 34.125C38.4999 34.357 38.4076 34.5795 38.2436 34.7436C38.0795 34.9076 37.857 34.9999 37.625 35Z" fill="#2F4CDD"/>
</svg>
