<svg width="56" height="56" viewBox="0 0 56 56" fill="none" xmlns="http://www.w3.org/2000/svg">
<rect width="56" height="56" rx="8" fill="#F1F1F1"/>
<path d="M37.625 20.125H36.75V16.625C36.75 16.4726 36.7102 16.3229 36.6345 16.1906C36.5589 16.0583 36.45 15.9481 36.3186 15.8709C36.1873 15.7936 36.0381 15.752 35.8857 15.7501C35.7333 15.7483 35.5831 15.7862 35.4499 15.8602L28 19.9991L20.5501 15.8602C20.4169 15.7862 20.2667 15.7483 20.1143 15.7501C19.9619 15.752 19.8127 15.7936 19.6814 15.8709C19.55 15.9481 19.4411 16.0583 19.3655 16.1906C19.2898 16.3229 19.25 16.4726 19.25 16.625V20.125H18.375C17.679 20.1258 17.0118 20.4026 16.5197 20.8947C16.0276 21.3868 15.7508 22.054 15.75 22.75V25.375C15.7508 26.071 16.0276 26.7382 16.5197 27.2303C17.0118 27.7224 17.679 27.9992 18.375 28H19.25V37.625C19.2508 38.321 19.5276 38.9882 20.0197 39.4803C20.5118 39.9724 21.179 40.2492 21.875 40.25H34.125C34.821 40.2492 35.4882 39.9724 35.9803 39.4803C36.4724 38.9882 36.7492 38.321 36.75 37.625V28H37.625C38.321 27.9992 38.9882 27.7224 39.4803 27.2303C39.9724 26.7382 40.2492 26.071 40.25 25.375V22.75C40.2492 22.054 39.9724 21.3868 39.4803 20.8947C38.9882 20.4026 38.321 20.1258 37.625 20.125ZM35 20.125H31.3769L35 18.1125V20.125ZM21 18.1125L24.6231 20.125H21V18.1125ZM21 37.625V28H27.125V38.5H21.875C21.643 38.4997 21.4206 38.4074 21.2566 38.2434C21.0926 38.0793 21.0003 37.857 21 37.625ZM35 37.625C34.9997 37.857 34.9074 38.0793 34.7434 38.2434C34.5794 38.4074 34.357 38.4997 34.125 38.5H28.875V28H35V37.625ZM38.5 25.375C38.4997 25.607 38.4074 25.8294 38.2434 25.9934C38.0794 26.1574 37.857 26.2497 37.625 26.25H18.375C18.143 26.2497 17.9206 26.1574 17.7566 25.9934C17.5926 25.8294 17.5003 25.607 17.5 25.375V22.75C17.5003 22.518 17.5926 22.2956 17.7566 22.1316C17.9206 21.9676 18.143 21.8753 18.375 21.875H37.625C37.857 21.8753 38.0794 21.9676 38.2434 22.1316C38.4074 22.2956 38.4997 22.518 38.5 22.75V25.375Z" fill="#3E4954"/>
</svg>
