<svg width="78" height="91" viewBox="0 0 78 91" fill="none" xmlns="http://www.w3.org/2000/svg">
<path d="M44.5289 90.3524C42.4047 90.6673 40.2311 90.8318 38.0194 90.8318C29.929 90.8318 22.3494 88.6477 15.8342 84.8406C16.864 81.0192 18.8451 77.6225 21.486 74.8857C21.3738 75.002 21.2621 75.1187 21.1523 75.2372H48.3588L44.5289 90.3524Z" fill="#E9E3D5"/>
<path d="M60.2046 84.8406C59.2502 81.2986 57.4716 78.1854 55.2895 75.683C53.8721 74.0954 52.4032 72.7508 50.5462 71.5692C50.4188 71.4767 49.7924 71.0971 49.5911 70.9794C40.1277 65.4302 28.3634 67.4446 21.1525 75.2374C27.3993 77.7975 34.1541 78.9667 40.9394 78.6537C41.1927 78.719 41.431 78.7477 41.6572 78.7477C43.2433 78.7477 44.5293 80.0336 44.5293 81.6197V90.3524C50.1745 89.5151 55.4709 87.6069 60.2046 84.8406Z" fill="#D3CDBF"/>
<path d="M54.9171 87.4698C53.4097 88.0971 51.8602 88.6431 50.2736 89.1023V78.7479C52.5941 81.0952 54.2453 84.1057 54.9171 87.4698Z" fill="#A19B8D"/>
<path d="M25.7654 78.7479V89.1023C24.1787 88.6433 22.6293 88.0971 21.1218 87.4698C21.7937 84.1057 23.4447 81.0952 25.7654 78.7479Z" fill="#B6B0A2"/>
<path d="M38.7855 84.5887C39.5786 84.5887 40.2215 83.9458 40.2215 83.1528C40.2215 82.3597 39.5786 81.7169 38.7855 81.7169C37.9925 81.7169 37.3496 82.3597 37.3496 83.1528C37.3496 83.9458 37.9925 84.5887 38.7855 84.5887Z" fill="#3E4954"/>
<path d="M38.7855 90.3326C39.5786 90.3326 40.2215 89.6898 40.2215 88.8967C40.2215 88.1037 39.5786 87.4608 38.7855 87.4608C37.9925 87.4608 37.3496 88.1037 37.3496 88.8967C37.3496 89.6898 37.9925 90.3326 38.7855 90.3326Z" fill="#3E4954"/>
<path d="M65.5908 47.5904C65.5908 32.7469 53.5497 16.9555 38.7852 16.9555C26.5398 16.9555 16.2128 27.7865 13.0084 39.9087C11.837 39.3127 10.5122 38.9743 9.10756 38.9743C4.34907 38.9743 0.491455 42.8317 0.491455 47.5904C0.491455 52.3491 4.34888 56.2065 9.10756 56.2065C9.35433 56.2065 9.5979 56.1937 9.83939 56.1733C10.0796 61.1063 12.719 65.8018 17.3448 68.5442C30.5068 76.3466 47.0636 76.3466 60.2256 68.5442C67.6129 64.1649 69.8863 54.8819 65.5908 47.5904Z" fill="#FFB578"/>
<path d="M68.4627 38.9743C67.0574 38.9743 65.7318 39.3129 64.5598 39.9099C62.4368 31.8764 57.1893 24.4243 50.34 20.3016C50.34 20.3016 57.7304 29.0202 57.7304 45.6768C57.7304 50.7694 55.0045 55.6815 50.2068 58.5254C38.1206 65.6899 23.1724 66.2744 10.6183 60.2811C11.7431 63.6163 14.0337 66.5811 17.3449 68.544C30.5069 76.3464 47.0637 76.3464 60.2254 68.544C64.873 65.7889 67.4943 61.0931 67.7314 56.1733C67.9728 56.1937 68.2161 56.2065 68.4627 56.2065C73.2212 56.2065 77.0788 52.3491 77.0788 47.5904C77.0788 42.8317 73.2212 38.9743 68.4627 38.9743Z" fill="#F7A16E"/>
<path d="M9.10787 50.4634C10.6941 50.4634 11.9799 49.1775 11.9799 47.5913C11.9799 46.0052 10.6941 44.7193 9.10787 44.7193C7.52169 44.7193 6.23584 46.0052 6.23584 47.5913C6.23584 49.1775 7.52169 50.4634 9.10787 50.4634Z" fill="#F7A16E"/>
<path d="M68.463 50.4634C70.0492 50.4634 71.335 49.1775 71.335 47.5913C71.335 46.0052 70.0492 44.7193 68.463 44.7193C66.8768 44.7193 65.5909 46.0052 65.5909 47.5913C65.5909 49.1775 66.8768 50.4634 68.463 50.4634Z" fill="#CE795F"/>
<path d="M13.0084 39.8982C14.942 40.8819 16.4543 42.5732 17.2045 44.6314C17.548 45.5743 18.7313 45.8973 19.4867 45.2368C23.0995 42.0787 25.3825 37.438 25.3825 32.2624C25.3825 29.0447 24.4995 26.0338 22.9642 23.4565C22.9642 23.4566 11.3564 26.6637 13.0084 39.8982Z" fill="#596775"/>
<path d="M54.6062 23.4567C53.071 26.0338 52.1879 29.0449 52.1879 32.2626C52.1879 37.4382 54.4707 42.0789 58.0836 45.237C58.8394 45.8975 60.0225 45.5745 60.3659 44.6316C61.1156 42.5732 62.6283 40.8821 64.562 39.8984C66.2141 26.6638 54.6062 23.4567 54.6062 23.4567Z" fill="#46525E"/>
<path d="M63.6762 11.2008H13.8945V31.6784H63.6762V11.2008Z" fill="#E9E3D5"/>
<path d="M62.6231 0C61.2343 0 15.6825 0 14.9475 0C10.1362 0 6.23572 3.90044 6.23572 8.71176C6.23572 13.5231 10.1362 17.4235 14.9475 17.4235C15.3167 17.4235 61.6722 17.4235 62.6231 17.4235C67.4344 17.4235 71.3348 13.5231 71.3348 8.71176C71.3348 3.90044 67.4344 0 62.6231 0Z" fill="#E9E3D5"/>
<path d="M71.3349 8.71176C71.3349 7.19886 70.9487 5.77633 70.2702 4.53662C68.4058 5.01055 67.0267 6.70003 67.0267 8.71176C67.0267 11.1399 65.0512 13.1156 62.6229 13.1156H14.9475C12.9358 13.1156 11.2463 14.4947 10.7723 16.3591C12.0121 17.0375 13.4346 17.4237 14.9475 17.4237H23.4677H38.7852C49.3477 17.4237 61.6507 17.4237 62.6229 17.4237C67.4344 17.4235 71.3349 13.5233 71.3349 8.71176Z" fill="#D3CDBF"/>
<path d="M16.1922 8.7118C16.1922 7.91866 15.5492 7.27588 14.7562 7.27588C13.9631 7.27588 13.3203 7.91885 13.3203 8.7118C13.3203 11.0992 14.151 13.2952 15.5362 15.0302H19.8677C17.6743 13.7755 16.1922 11.4144 16.1922 8.7118Z" fill="#D3CDBF"/>
<path d="M64.2505 8.7118C64.2505 7.91866 63.6075 7.27588 62.8146 7.27588C62.0216 7.27588 61.3787 7.91885 61.3787 8.7118C61.3787 11.4144 59.8965 13.7755 57.7035 15.0302H62.035C63.4198 13.2952 64.2505 11.0993 64.2505 8.7118Z" fill="#D3CDBF"/>
<path d="M54.1027 7.27588C53.3095 7.27588 52.6668 7.91885 52.6668 8.7118C52.6668 11.4144 51.1846 13.7755 48.9916 15.0302H53.3231C54.7081 13.295 55.539 11.0992 55.539 8.7118C55.5388 7.91885 54.8958 7.27588 54.1027 7.27588Z" fill="#D3CDBF"/>
<path d="M27.6801 8.7118C27.6801 7.91866 27.0371 7.27588 26.2442 7.27588C25.4512 7.27588 24.8082 7.91885 24.8082 8.7118C24.8082 11.0992 25.6389 13.2952 27.0241 15.0302H31.3556C29.1624 13.7755 27.6801 11.4144 27.6801 8.7118Z" fill="#D3CDBF"/>
</svg>
