<svg width="165" height="21" viewBox="0 0 165 21" fill="none" xmlns="http://www.w3.org/2000/svg">
<path d="M11.0777 0.730508L8.04852 6.16031L1.27108 7.03383C0.0556889 7.18967 -0.431396 8.51431 0.449996 9.27301L5.35332 13.4971L4.19359 19.4641C3.98484 20.5427 5.26982 21.3506 6.34604 20.8462L12.4091 18.0288L18.4721 20.8462C19.5484 21.3465 20.8333 20.5427 20.6246 19.4641L19.4649 13.4971L24.3682 9.27301C25.2496 8.51431 24.7625 7.18967 23.5471 7.03383L16.7697 6.16031L13.7405 0.730508C13.1977 -0.237341 11.6251 -0.249644 11.0777 0.730508Z" fill="white"/>
<path d="M45.4413 0.730508L42.412 6.16031L35.6346 7.03383C34.4192 7.18967 33.9321 8.51431 34.8135 9.27301L39.7168 13.4971L38.5571 19.4641C38.3484 20.5427 39.6333 21.3506 40.7096 20.8462L46.7726 18.0288L52.8357 20.8462C53.9119 21.3465 55.1969 20.5427 54.9881 19.4641L53.8284 13.4971L58.7317 9.27301C59.6131 8.51431 59.126 7.18967 57.9106 7.03383L51.1332 6.16031L48.104 0.730508C47.5612 -0.237341 45.9886 -0.249644 45.4413 0.730508Z" fill="white"/>
<path d="M80.8621 0.730508L78.0659 6.16031L71.8098 7.03383C70.6879 7.18967 70.2383 8.51431 71.0519 9.27301L75.578 13.4971L74.5075 19.4641C74.3148 20.5427 75.5009 21.3506 76.4944 20.8462L82.091 18.0288L87.6877 20.8462C88.6811 21.3465 89.8673 20.5427 89.6746 19.4641L88.604 13.4971L93.1302 9.27301C93.9438 8.51431 93.4942 7.18967 92.3723 7.03383L86.1162 6.16031L83.32 0.730508C82.819 -0.237341 81.3674 -0.249644 80.8621 0.730508Z" fill="white"/>
<path d="M116.078 0.730508L113.049 6.16031L106.271 7.03383C105.056 7.18967 104.569 8.51431 105.45 9.27301L110.353 13.4971L109.194 19.4641C108.985 20.5427 110.27 21.3506 111.346 20.8462L117.409 18.0288L123.472 20.8462C124.548 21.3465 125.833 20.5427 125.625 19.4641L124.465 13.4971L129.368 9.27301C130.25 8.51431 129.762 7.18967 128.547 7.03383L121.77 6.16031L118.74 0.730508C118.198 -0.237341 116.625 -0.249644 116.078 0.730508Z" fill="white"/>
<path d="M150.441 0.730508L147.412 6.16031L140.635 7.03383C139.419 7.18967 138.932 8.51431 139.814 9.27301L144.717 13.4971L143.557 19.4641C143.348 20.5427 144.633 21.3506 145.71 20.8462L151.773 18.0288L157.836 20.8462C158.912 21.3465 160.197 20.5427 159.988 19.4641L158.828 13.4971L163.732 9.27301C164.613 8.51431 164.126 7.18967 162.911 7.03383L156.133 6.16031L153.104 0.730508C152.561 -0.237341 150.989 -0.249644 150.441 0.730508Z" fill="white" fill-opacity="0.12"/>
</svg>
