<svg width="110" height="14" viewBox="0 0 110 14" fill="none" xmlns="http://www.w3.org/2000/svg">
<path d="M7.14168 0.487005L5.18879 4.10687L0.819452 4.68922C0.035902 4.79311 -0.278116 5.67621 0.290107 6.182L3.45122 8.99806L2.70356 12.9761C2.56898 13.6951 3.39739 14.2337 4.09122 13.8975L8 12.0192L11.9088 13.8975C12.6026 14.231 13.431 13.6951 13.2964 12.9761L12.5488 8.99806L15.7099 6.182C16.2781 5.67621 15.9641 4.79311 15.1805 4.68922L10.8112 4.10687L8.85832 0.487005C8.50841 -0.158228 7.49458 -0.16643 7.14168 0.487005Z" fill="#2F4CDD"/>
<path d="M30.588 0.487005L28.5131 4.10687L23.8707 4.68922C23.0381 4.79311 22.7045 5.67621 23.3082 6.182L26.6669 8.99806L25.8725 12.9761C25.7295 13.6951 26.6097 14.2337 27.3469 13.8975L31.5 12.0192L35.6531 13.8975C36.3903 14.231 37.2705 13.6951 37.1275 12.9761L36.3331 8.99806L39.6918 6.182C40.2955 5.67621 39.9619 4.79311 39.1293 4.68922L34.4869 4.10687L32.412 0.487005C32.0402 -0.158228 30.963 -0.16643 30.588 0.487005Z" fill="#2F4CDD"/>
<path d="M54.1417 0.487005L52.1888 4.10687L47.8195 4.68922C47.0359 4.79311 46.7219 5.67621 47.2901 6.182L50.4512 8.99806L49.7036 12.9761C49.569 13.6951 50.3974 14.2337 51.0912 13.8975L55 12.0192L58.9088 13.8975C59.6026 14.231 60.431 13.6951 60.2964 12.9761L59.5488 8.99806L62.7099 6.182C63.2781 5.67621 62.9641 4.79311 62.1805 4.68922L57.8112 4.10687L55.8583 0.487005C55.5084 -0.158228 54.4946 -0.16643 54.1417 0.487005Z" fill="#D3D6E4"/>
<path d="M77.588 0.487005L75.5131 4.10687L70.8707 4.68922C70.0381 4.79311 69.7045 5.67621 70.3082 6.182L73.6669 8.99806L72.8725 12.9761C72.7295 13.6951 73.6097 14.2337 74.3469 13.8975L78.5 12.0192L82.6531 13.8975C83.3903 14.231 84.2705 13.6951 84.1275 12.9761L83.3331 8.99806L86.6918 6.182C87.2955 5.67621 86.9619 4.79311 86.1293 4.68922L81.4869 4.10687L79.412 0.487005C79.0402 -0.158228 77.963 -0.16643 77.588 0.487005Z" fill="#D3D6E4"/>
<path d="M101.142 0.487005L99.1888 4.10687L94.8195 4.68922C94.0359 4.79311 93.7219 5.67621 94.2901 6.182L97.4512 8.99806L96.7036 12.9761C96.569 13.6951 97.3974 14.2337 98.0912 13.8975L102 12.0192L105.909 13.8975C106.603 14.231 107.431 13.6951 107.296 12.9761L106.549 8.99806L109.71 6.182C110.278 5.67621 109.964 4.79311 109.181 4.68922L104.811 4.10687L102.858 0.487005C102.508 -0.158228 101.495 -0.16643 101.142 0.487005Z" fill="#D3D6E4"/>
</svg>
